# xmcd
#
# Track frame offsets: 
#        182
#        11960
#        24325
#        39380
#        53520
#        68645
#        80125
#        93475
#        102372
#        112512
#        128195
#        139710
#
# Disc length: 1969 seconds
#
# Revision: 0
# Processed by: cddbd v1.5PL3 Copyright (c) Steve Scherf et al.
# Submitted via: ExactAudioCopy v0.95a5
#
DISCID=9207af0c
DTITLE=Rick Pardue - Not Sold In Stores
DYEAR=1992
DGENRE=Bluegrass
TTITLE0=It Shouldn't Be That Hard To Do
TTITLE1=Miss Molly
TTITLE2=This Heart Of Mine
TTITLE3=Farewell Blues
TTITLE4=If You Don't Believe The Bible
TTITLE5=It's Clear To Me
TTITLE6=Not In Your Heart , Not On Your Mind
TTITLE7=Jordan
TTITLE8=Mitchell River Rapids
TTITLE9=Take Care Of My Babies
TTITLE10=Moonshiner
TTITLE11=Whitehouse Blues
EXTD=
EXTT0=
EXTT1=
EXTT2=
EXTT3=
EXTT4=
EXTT5=
EXTT6=
EXTT7=
EXTT8=
EXTT9=
EXTT10=
EXTT11=
PLAYORDER=
